<svg aria-hidden="true" style="position: absolute; width: 0; height: 0; overflow: hidden;" version="1.1" xmlns="http://www.w3.org/2000/svg" xmlns:xlink="http://www.w3.org/1999/xlink">
  <defs>
    <symbol id="icon-notebook" viewBox="0 0 32 32">
      <path fill="#377dff" style="fill: var(--color1, #377dff)" d="M11.652 7.304h-5.797v5.797h2.899v-2.899h2.899v-2.899zM26.145 13.101h-2.899v2.899h-2.898v2.898h5.797v-5.797zM29.044 21.797h-26.087v-17.391h26.087v17.391zM29.044 1.507h-26.087c-1.609 0-2.899 1.29-2.899 2.899v17.391c0 0.769 0.305 1.506 0.849 2.050s1.281 0.849 2.050 0.849h10.145v2.899h-2.899v2.898h11.594v-2.898h-2.899v-2.899h10.145c0.769 0 1.506-0.305 2.050-0.849s0.849-1.281 0.849-2.050v-17.391c0-0.769-0.305-1.506-0.849-2.050s-1.281-0.849-2.050-0.849z"></path>
    </symbol>
    <symbol id="icon-features" viewBox="0 0 32 32">
      <path fill="#377dff" style="fill: var(--color1, #377dff)" d="M30.474 22.249h-3.735c-0.222-0.936-0.753-1.771-1.508-2.368s-1.689-0.922-2.652-0.922-1.897 0.325-2.652 0.922c-0.755 0.597-1.286 1.431-1.508 2.368h-16.892c-0.262 0-0.513 0.104-0.698 0.289s-0.289 0.436-0.289 0.698 0.104 0.513 0.289 0.698c0.185 0.185 0.436 0.289 0.698 0.289h16.892c0.222 0.936 0.753 1.771 1.508 2.368s1.689 0.922 2.652 0.922 1.897-0.325 2.652-0.922c0.755-0.597 1.286-1.431 1.508-2.368h3.735c0.262 0 0.513-0.104 0.698-0.289s0.289-0.436 0.289-0.698-0.104-0.513-0.289-0.698c-0.185-0.185-0.436-0.289-0.698-0.289zM22.579 25.538c-0.455 0-0.901-0.135-1.279-0.388s-0.674-0.613-0.848-1.033c-0.174-0.421-0.22-0.884-0.131-1.33s0.308-0.857 0.63-1.179 0.732-0.541 1.179-0.63c0.447-0.089 0.91-0.043 1.33 0.131s0.78 0.469 1.033 0.848c0.253 0.379 0.388 0.824 0.388 1.279-0.001 0.61-0.244 1.196-0.675 1.627s-1.017 0.674-1.627 0.675zM1.526 9.749h6.366c0.222 0.937 0.753 1.771 1.508 2.368s1.689 0.922 2.652 0.922 1.897-0.325 2.652-0.922c0.755-0.597 1.286-1.431 1.508-2.368h14.261c0.262 0 0.513-0.104 0.698-0.289s0.289-0.436 0.289-0.698-0.104-0.513-0.289-0.698c-0.185-0.185-0.436-0.289-0.698-0.289h-14.261c-0.222-0.937-0.753-1.771-1.508-2.368s-1.689-0.922-2.652-0.922-1.897 0.325-2.652 0.922c-0.755 0.597-1.286 1.431-1.508 2.368h-6.366c-0.262 0-0.513 0.104-0.698 0.289s-0.289 0.436-0.289 0.698c0 0.262 0.104 0.513 0.289 0.698s0.436 0.289 0.698 0.289zM12.053 6.459c0.455 0 0.901 0.135 1.279 0.388s0.674 0.613 0.848 1.033c0.174 0.421 0.22 0.884 0.131 1.33s-0.308 0.857-0.63 1.179c-0.322 0.322-0.732 0.541-1.179 0.63s-0.91 0.043-1.33-0.131-0.78-0.469-1.033-0.848c-0.253-0.379-0.388-0.824-0.388-1.279 0.001-0.61 0.244-1.196 0.675-1.627s1.017-0.675 1.627-0.675z"></path>
    </symbol>
    <symbol id="icon-star" viewBox="0 0 32 32">
      <path fill="#377dff" style="fill: var(--color1, #377dff)" d="M30.736 11.612l-9.446-1.373-4.222-8.56c-0.115-0.234-0.305-0.424-0.539-0.539-0.588-0.29-1.302-0.048-1.596 0.539l-4.222 8.56-9.446 1.373c-0.26 0.037-0.498 0.16-0.681 0.346-0.22 0.226-0.342 0.531-0.338 0.847s0.134 0.617 0.36 0.838l6.834 6.663-1.615 9.408c-0.038 0.219-0.014 0.444 0.070 0.65s0.223 0.384 0.403 0.515c0.18 0.131 0.392 0.208 0.614 0.224s0.443-0.031 0.639-0.134l8.449-4.442 8.449 4.442c0.231 0.123 0.498 0.164 0.755 0.119 0.647-0.112 1.083-0.726 0.971-1.373l-1.615-9.408 6.834-6.663c0.186-0.182 0.309-0.42 0.346-0.681 0.101-0.651-0.353-1.254-1.004-1.35zM21.685 19.369l1.343 7.824-7.027-3.691-7.028 3.694 1.343-7.824-5.684-5.543 7.857-1.142 3.512-7.117 3.512 7.117 7.857 1.142-5.684 5.539z"></path>
    </symbol>
    <symbol id="icon-software" viewBox="0 0 32 32">
      <path fill="#377dff" style="fill: var(--color1, #377dff)" d="M22.921 19.175c0.127-1.048 0.222-2.095 0.222-3.175s-0.095-2.127-0.222-3.175h5.365c0.254 1.016 0.413 2.079 0.413 3.175s-0.159 2.159-0.413 3.175h-5.365zM20.111 28c0.952-1.762 1.683-3.667 2.19-5.651h4.683c-1.538 2.648-3.978 4.654-6.873 5.651zM19.714 19.175h-7.429c-0.159-1.048-0.254-2.095-0.254-3.175s0.095-2.143 0.254-3.175h7.429c0.143 1.032 0.254 2.095 0.254 3.175s-0.111 2.127-0.254 3.175zM16 28.635c-1.317-1.905-2.381-4.016-3.032-6.286h6.063c-0.651 2.27-1.714 4.381-3.032 6.286zM9.651 9.651h-4.635c1.522-2.655 3.96-4.664 6.857-5.651-0.952 1.762-1.667 3.667-2.222 5.651zM5.016 22.349h4.635c0.556 1.984 1.27 3.889 2.222 5.651-2.891-0.997-5.326-3.004-6.857-5.651zM3.714 19.175c-0.254-1.016-0.413-2.079-0.413-3.175s0.159-2.159 0.413-3.175h5.365c-0.127 1.048-0.222 2.095-0.222 3.175s0.095 2.127 0.222 3.175h-5.365zM16 3.349c1.317 1.905 2.381 4.032 3.032 6.302h-6.063c0.651-2.27 1.714-4.397 3.032-6.302zM26.984 9.651h-4.683c-0.497-1.966-1.232-3.864-2.19-5.651 2.921 1 5.349 3.016 6.873 5.651zM16 0.127c-8.778 0-15.873 7.143-15.873 15.873 0 4.21 1.672 8.247 4.649 11.224 1.474 1.474 3.224 2.643 5.15 3.441s3.99 1.208 6.074 1.208c4.21 0 8.247-1.672 11.224-4.649s4.649-7.014 4.649-11.224c0-2.085-0.411-4.149-1.208-6.074s-1.967-3.676-3.441-5.15c-1.474-1.474-3.224-2.643-5.15-3.441s-3.99-1.208-6.074-1.208z"></path>
    </symbol>
    <symbol id="icon-High-Customizibility" viewBox="0 0 32 32">
      <path fill="#377dff" style="fill: var(--color1, #377dff)" d="M17.6 16c0.166 0 0.328 0.013 0.488 0.037-0.624 0.446-1.189 0.973-1.677 1.563h-10.011c-0.424 0-0.831 0.169-1.131 0.469s-0.469 0.707-0.469 1.131v2.4c0 2.251 2.526 4 7.2 4 0.896 0.006 1.79-0.068 2.672-0.222 0.133 0.526 0.315 1.032 0.538 1.515-1.057 0.211-2.132 0.314-3.21 0.307-5.459 0-8.8-2.314-8.8-5.6v-2.4c0-0.849 0.337-1.663 0.937-2.263s1.414-0.937 2.263-0.937h11.2z"></path>
      <path fill="#377dff" style="fill: var(--color1, #377dff)" d="M27.2 10.4c0 1.061-0.421 2.078-1.172 2.828s-1.768 1.172-2.828 1.172c-1.061 0-2.078-0.421-2.828-1.172s-1.172-1.768-1.172-2.828c0-1.061 0.421-2.078 1.172-2.828s1.768-1.172 2.828-1.172c1.061 0 2.078 0.421 2.828 1.172s1.172 1.768 1.172 2.828zM23.2 8c-0.637 0-1.247 0.253-1.697 0.703s-0.703 1.061-0.703 1.697 0.253 1.247 0.703 1.697c0.45 0.45 1.061 0.703 1.697 0.703s1.247-0.253 1.697-0.703c0.45-0.45 0.703-1.061 0.703-1.697s-0.253-1.247-0.703-1.697c-0.45-0.45-1.060-0.703-1.697-0.703z"></path>
      <path fill="#377dff" style="fill: var(--color1, #377dff)" d="M12 3.2c0.735 0 1.464 0.145 2.143 0.426s1.297 0.694 1.817 1.214c0.52 0.52 0.932 1.137 1.214 1.817s0.426 1.408 0.426 2.143-0.145 1.464-0.426 2.143c-0.281 0.679-0.694 1.297-1.214 1.817s-1.137 0.932-1.817 1.214c-0.679 0.281-1.408 0.426-2.143 0.426-1.485 0-2.91-0.59-3.96-1.64s-1.64-2.475-1.64-3.96 0.59-2.91 1.64-3.96c1.050-1.050 2.475-1.64 3.96-1.64zM12 4.8c-1.061 0-2.078 0.421-2.828 1.172s-1.172 1.768-1.172 2.828c0 1.061 0.421 2.078 1.172 2.828s1.768 1.172 2.828 1.172c1.061 0 2.078-0.421 2.828-1.172s1.172-1.768 1.172-2.828c0-1.061-0.421-2.078-1.172-2.828s-1.768-1.172-2.828-1.172z"></path>
      <path fill="#377dff" style="fill: var(--color1, #377dff)" d="M16.806 20.352l0.573 0.56c0.305 0.298 0.547 0.654 0.712 1.047s0.25 0.815 0.25 1.241c0 0.426-0.085 0.848-0.25 1.241s-0.407 0.749-0.712 1.047l-0.573 0.56c0.208 0.498 0.467 0.966 0.773 1.398l0.632-0.19c0.418-0.125 0.856-0.164 1.289-0.113s0.851 0.189 1.229 0.407c0.378 0.218 0.707 0.51 0.967 0.86s0.447 0.749 0.547 1.173l0.186 0.774c0.512 0.058 1.029 0.058 1.541 0l0.184-0.774c0.101-0.424 0.287-0.823 0.547-1.173s0.589-0.642 0.967-0.86c0.378-0.218 0.796-0.356 1.229-0.407s0.872-0.012 1.289 0.113l0.634 0.19c0.304-0.432 0.565-0.901 0.773-1.398l-0.573-0.56c-0.305-0.298-0.547-0.654-0.712-1.047s-0.25-0.815-0.25-1.241c0-0.426 0.085-0.848 0.25-1.241s0.407-0.749 0.712-1.047l0.573-0.56c-0.205-0.493-0.465-0.962-0.773-1.398l-0.634 0.19c-0.418 0.125-0.856 0.164-1.289 0.113s-0.851-0.189-1.229-0.407c-0.378-0.218-0.707-0.511-0.967-0.86s-0.447-0.749-0.547-1.173l-0.184-0.774c-0.512-0.058-1.029-0.058-1.541 0l-0.184 0.774c-0.101 0.424-0.287 0.823-0.547 1.173s-0.589 0.642-0.967 0.86c-0.378 0.218-0.796 0.356-1.229 0.407s-0.872 0.012-1.289-0.113l-0.634-0.19c-0.306 0.432-0.566 0.901-0.773 1.398zM23.198 24.8c-0.424 0-0.831-0.169-1.131-0.469s-0.469-0.707-0.469-1.131c0-0.424 0.169-0.831 0.469-1.131s0.707-0.469 1.131-0.469c0.424 0 0.831 0.169 1.131 0.469s0.469 0.707 0.469 1.131c0 0.424-0.169 0.831-0.469 1.131s-0.707 0.469-1.131 0.469z"></path>
    </symbol>
    <symbol id="icon-SEO" viewBox="0 0 32 32">
      <path fill="#377dff" style="fill: var(--color1, #377dff)" d="M22.25 8.898v-1.705c0-0.156-0.128-0.284-0.284-0.284h-13.636c-0.156 0-0.284 0.128-0.284 0.284v1.705c0 0.156 0.128 0.284 0.284 0.284h13.636c0.156 0 0.284-0.128 0.284-0.284zM8.33 12.023c-0.156 0-0.284 0.128-0.284 0.284v1.704c0 0.156 0.128 0.284 0.284 0.284h6.534c0.156 0 0.284-0.128 0.284-0.284v-1.704c0-0.156-0.128-0.284-0.284-0.284h-6.534zM21.682 16.142c-4.236 0-7.67 3.434-7.67 7.67s3.434 7.67 7.67 7.67c4.236 0 7.67-3.434 7.67-7.67s-3.434-7.67-7.67-7.67zM25.499 27.63c-1.019 1.019-2.376 1.58-3.817 1.58s-2.798-0.561-3.817-1.58c-1.019-1.019-1.58-2.376-1.58-3.817s0.561-2.798 1.58-3.817c1.019-1.019 2.376-1.58 3.817-1.58s2.798 0.561 3.817 1.58c1.019 1.019 1.58 2.376 1.58 3.817s-0.561 2.798-1.58 3.817zM24.842 21.114h-1.573c-0.092 0-0.178 0.043-0.231 0.117l-2.255 3.118-0.82-1.133c-0.026-0.037-0.061-0.066-0.101-0.087s-0.085-0.031-0.13-0.030h-1.566c-0.231 0-0.366 0.263-0.231 0.451l2.621 3.626c0.114 0.156 0.345 0.156 0.458 0l4.055-5.611c0.138-0.188 0.004-0.451-0.227-0.451zM13.443 28.074h-8.239v-25h19.886v12.216c0 0.156 0.128 0.284 0.284 0.284h1.989c0.156 0 0.284-0.128 0.284-0.284v-13.636c0-0.629-0.508-1.136-1.136-1.136h-22.727c-0.629 0-1.136 0.508-1.136 1.136v27.841c0 0.628 0.508 1.136 1.136 1.136h9.659c0.156 0 0.284-0.128 0.284-0.284v-1.989c0-0.156-0.128-0.284-0.284-0.284z"></path>
    </symbol>
    <symbol id="facebook" viewBox="0 0 20 20" fill="none" xmlns="http://www.w3.org/2000/svg">
      <path d="M11.1642 17.4975V10.6675H13.4683L13.8108 7.99335H11.1642V6.29002C11.1642 5.51835 11.3792 4.99002 12.4867 4.99002H13.89V2.60585C13.2072 2.53268 12.5209 2.49735 11.8342 2.50002C9.7975 2.50002 8.39917 3.74335 8.39917 6.02585V7.98835H6.11V10.6625H8.40417V17.4975H11.1642Z" fill="white" />
    </symbol>
    <symbol id="telegram" viewBox="0 0 21 20" fill="none" xmlns="http://www.w3.org/2000/svg">
      <path d="M19.3661 3.85196L16.7254 16.3051C16.5261 17.1838 16.0067 17.4026 15.2686 16.9888L11.2448 14.0238L9.30356 15.8913C9.08856 16.1063 8.90918 16.2857 8.49481 16.2857L8.78418 12.1882L16.2411 5.45008C16.5654 5.16133 16.1704 5.00071 15.7373 5.29008L6.51856 11.0951L2.54981 9.85258C1.68668 9.58321 1.67106 8.98946 2.72981 8.57508L18.2529 2.59446C18.9717 2.32508 19.6004 2.75446 19.3661 3.85258V3.85196Z" fill="white" />
    </symbol>
    <symbol id="linkedin" viewBox="0 0 21 20" fill="none" xmlns="http://www.w3.org/2000/svg">
      <path d="M4.48585 5.9975C5.49285 5.9975 6.30918 5.18116 6.30918 4.17416C6.30918 3.16716 5.49285 2.35083 4.48585 2.35083C3.47885 2.35083 2.66251 3.16716 2.66251 4.17416C2.66251 5.18116 3.47885 5.9975 4.48585 5.9975Z" fill="white" />
      <path d="M8.03089 7.37915V17.495H11.1717V12.4925C11.1717 11.1725 11.4201 9.89415 13.0567 9.89415C14.6709 9.89415 14.6909 11.4033 14.6909 12.5758V17.4958H17.8334V11.9483C17.8334 9.22332 17.2467 7.12915 14.0617 7.12915C12.5326 7.12915 11.5076 7.96832 11.0884 8.76248H11.0459V7.37915H8.03089ZM2.91255 7.37915H6.05839V17.495H2.91255V7.37915Z" fill="white" />
    </symbol>
    <symbol id="instagram" viewBox="0 0 20 20" fill="none" xmlns="http://www.w3.org/2000/svg">
      <path d="M12.6999 10C12.6999 8.5 11.4999 7.3 9.99993 7.3C8.49993 7.3 7.29993 8.5 7.29993 10C7.29993 11.5 8.49993 12.7 9.99993 12.7C11.4999 12.7 12.6999 11.5 12.6999 10ZM14.0999 10C14.0999 12.3 12.2999 14.1 9.99993 14.1C7.69993 14.1 5.89993 12.3 5.89993 10C5.89993 7.7 7.69993 5.9 9.99993 5.9C12.2999 5.9 14.0999 7.7 14.0999 10ZM15.1999 5.7C15.1999 6.3 14.7999 6.7 14.1999 6.7C13.5999 6.7 13.1999 6.3 13.1999 5.7C13.1999 5.1 13.5999 4.7 14.1999 4.7C14.7999 4.7 15.1999 5.2 15.1999 5.7ZM9.99993 3.4C8.79993 3.4 6.29993 3.3 5.29993 3.7C4.59993 4 3.99993 4.6 3.79993 5.3C3.39993 6.3 3.49993 8.8 3.49993 10C3.49993 11.2 3.39993 13.7 3.79993 14.7C3.99993 15.4 4.59993 16 5.29993 16.2C6.29993 16.6 8.89993 16.5 9.99993 16.5C11.0999 16.5 13.6999 16.6 14.6999 16.2C15.3999 15.9 15.8999 15.4 16.1999 14.7C16.5999 13.6 16.4999 11.1 16.4999 10C16.4999 8.9 16.5999 6.3 16.1999 5.3C15.9999 4.6 15.3999 4 14.6999 3.8C13.6999 3.3 11.1999 3.4 9.99993 3.4ZM17.9999 10V13.3C17.9999 14.5 17.5999 15.7 16.6999 16.7C15.7999 17.6 14.5999 18 13.2999 18H6.69993C5.49993 18 4.29993 17.6 3.29993 16.7C2.49993 15.8 1.99993 14.6 1.99993 13.3V10V6.7C1.99993 5.4 2.49993 4.2 3.29993 3.3C4.29993 2.5 5.49993 2 6.69993 2H13.2999C14.4999 2 15.6999 2.4 16.6999 3.3C17.4999 4.2 17.9999 5.4 17.9999 6.7V10Z" fill="white" />
    </symbol>
    <symbol id="youtube" viewBox="0 0 21 20" fill="none" xmlns="http://www.w3.org/2000/svg">
      <g clip-path="url(#clip0_1_112)">
        <path d="M10.6667 2.30005C0.838672 2.30005 0.666672 3.17405 0.666672 10C0.666672 16.826 0.838672 17.7 10.6667 17.7C20.4947 17.7 20.6667 16.826 20.6667 10C20.6667 3.17405 20.4947 2.30005 10.6667 2.30005ZM13.8717 10.334L9.38167 12.43C8.98867 12.612 8.66667 12.408 8.66667 11.974V8.02605C8.66667 7.59305 8.98867 7.38805 9.38167 7.57005L13.8717 9.66605C14.2647 9.85005 14.2647 10.15 13.8717 10.334Z" fill="white" />
      </g>
      <defs>
        <clipPath id="clip0_1_112">
          <rect width="20" height="20" fill="white" transform="translate(0.666672)" />
        </clipPath>
      </defs>
    </symbol>
    <symbol id="icon-back" viewBox="0 0 60 60" fill="none" xmlns="http://www.w3.org/2000/svg">
      <path fill-rule="evenodd" clip-rule="evenodd" d="M30 56.25C36.9619 56.25 43.6387 53.4844 48.5616 48.5616C53.4844 43.6387 56.25 36.9619 56.25 30C56.25 23.0381 53.4844 16.3613 48.5616 11.4384C43.6387 6.51562 36.9619 3.75 30 3.75C23.0381 3.75 16.3613 6.51562 11.4384 11.4384C6.51562 16.3613 3.75 23.0381 3.75 30C3.75 36.9619 6.51562 43.6387 11.4384 48.5616C16.3613 53.4844 23.0381 56.25 30 56.25ZM30 60C37.9565 60 45.5871 56.8393 51.2132 51.2132C56.8393 45.5871 60 37.9565 60 30C60 22.0435 56.8393 14.4129 51.2132 8.7868C45.5871 3.16071 37.9565 0 30 0C22.0435 0 14.4129 3.16071 8.7868 8.7868C3.16071 14.4129 0 22.0435 0 30C0 37.9565 3.16071 45.5871 8.7868 51.2132C14.4129 56.8393 22.0435 60 30 60Z" fill="#377DFF" />
      <path fill-rule="evenodd" clip-rule="evenodd" d="M31.3273 42.5779C31.5019 42.4037 31.6404 42.1968 31.735 41.969C31.8295 41.7412 31.8781 41.497 31.8781 41.2504C31.8781 41.0038 31.8295 40.7596 31.735 40.5318C31.6404 40.304 31.5019 40.0971 31.3273 39.9229L21.401 30.0004L31.3273 20.0779C31.5016 19.9036 31.6399 19.6966 31.7342 19.4689C31.8286 19.2411 31.8771 18.997 31.8771 18.7504C31.8771 18.5039 31.8286 18.2598 31.7342 18.032C31.6399 17.8042 31.5016 17.5972 31.3273 17.4229C31.153 17.2486 30.946 17.1103 30.7182 17.016C30.4904 16.9216 30.2463 16.873 29.9998 16.873C29.7532 16.873 29.5091 16.9216 29.2813 17.016C29.0536 17.1103 28.8466 17.2486 28.6723 17.4229L17.4223 28.6729C17.2477 28.8471 17.1091 29.054 17.0146 29.2818C16.9201 29.5096 16.8714 29.7538 16.8714 30.0004C16.8714 30.247 16.9201 30.4912 17.0146 30.719C17.1091 30.9468 17.2477 31.1537 17.4223 31.3279L28.6723 42.5779C28.8465 42.7525 29.0534 42.8911 29.2812 42.9856C29.5089 43.0801 29.7532 43.1288 29.9998 43.1288C30.2464 43.1288 30.4906 43.0801 30.7184 42.9856C30.9462 42.8911 31.1531 42.7525 31.3273 42.5779Z" fill="#377DFF" />
      <path fill-rule="evenodd" clip-rule="evenodd" d="M43.125 30C43.125 29.5027 42.9275 29.0258 42.5758 28.6742C42.2242 28.3225 41.7473 28.125 41.25 28.125H22.5C22.0027 28.125 21.5258 28.3225 21.1742 28.6742C20.8225 29.0258 20.625 29.5027 20.625 30C20.625 30.4973 20.8225 30.9742 21.1742 31.3258C21.5258 31.6775 22.0027 31.875 22.5 31.875H41.25C41.7473 31.875 42.2242 31.6775 42.5758 31.3258C42.9275 30.9742 43.125 30.4973 43.125 30Z" fill="#377DFF" />
    </symbol>
    <symbol id="icon-next" viewBox="0 0 60 60" fill="none" xmlns="http://www.w3.org/2000/svg">
      <path fill-rule="evenodd" clip-rule="evenodd" d="M30 3.75C23.0381 3.75 16.3613 6.51561 11.4385 11.4384C6.51562 16.3613 3.75 23.0381 3.75 30C3.75 36.9619 6.51562 43.6387 11.4385 48.5615C16.3613 53.4844 23.0381 56.25 30 56.25C36.9619 56.25 43.6387 53.4844 48.5616 48.5616C53.4844 43.6387 56.25 36.9619 56.25 30C56.25 23.0381 53.4844 16.3613 48.5616 11.4384C43.6387 6.51562 36.9619 3.75 30 3.75ZM30 -2.62268e-06C22.0435 -3.31826e-06 14.4129 3.1607 8.7868 8.78679C3.16071 14.4129 3.31826e-06 22.0435 2.62268e-06 30C1.9271e-06 37.9565 3.16071 45.5871 8.7868 51.2132C14.4129 56.8393 22.0435 60 30 60C37.9565 60 45.5871 56.8393 51.2132 51.2132C56.8393 45.5871 60 37.9565 60 30C60 22.0435 56.8393 14.4129 51.2132 8.7868C45.5871 3.1607 37.9565 -1.9271e-06 30 -2.62268e-06Z" fill="#377DFF" />
      <path fill-rule="evenodd" clip-rule="evenodd" d="M28.6727 17.4221C28.4981 17.5963 28.3596 17.8032 28.2651 18.031C28.1705 18.2588 28.1219 18.503 28.1219 18.7496C28.1219 18.9962 28.1705 19.2404 28.2651 19.4682C28.3596 19.696 28.4981 19.9029 28.6727 20.0771L38.599 29.9996L28.6727 39.9221C28.4984 40.0964 28.3601 40.3034 28.2658 40.5311C28.1714 40.7589 28.1229 41.003 28.1229 41.2496C28.1229 41.4961 28.1714 41.7402 28.2658 41.968C28.3601 42.1958 28.4984 42.4028 28.6727 42.5771C28.847 42.7514 29.054 42.8897 29.2818 42.984C29.5096 43.0784 29.7537 43.127 30.0002 43.127C30.2468 43.127 30.4909 43.0784 30.7187 42.984C30.9464 42.8897 31.1534 42.7514 31.3277 42.5771L42.5777 31.3271C42.7523 31.1529 42.8909 30.946 42.9854 30.7182C43.0799 30.4904 43.1286 30.2462 43.1286 29.9996C43.1286 29.753 43.0799 29.5088 42.9854 29.281C42.8909 29.0532 42.7523 28.8463 42.5777 28.6721L31.3277 17.4221C31.1536 17.2475 30.9466 17.1089 30.7188 17.0144C30.4911 16.9199 30.2468 16.8712 30.0002 16.8712C29.7536 16.8712 29.5094 16.9199 29.2816 17.0144C29.0538 17.1089 28.8469 17.2475 28.6727 17.4221Z" fill="#377DFF" />
      <path fill-rule="evenodd" clip-rule="evenodd" d="M16.875 30C16.875 30.4973 17.0725 30.9742 17.4242 31.3258C17.7758 31.6775 18.2527 31.875 18.75 31.875L37.5 31.875C37.9973 31.875 38.4742 31.6775 38.8258 31.3258C39.1775 30.9742 39.375 30.4973 39.375 30C39.375 29.5027 39.1775 29.0258 38.8258 28.6742C38.4742 28.3225 37.9973 28.125 37.5 28.125L18.75 28.125C18.2527 28.125 17.7758 28.3225 17.4242 28.6742C17.0725 29.0258 16.875 29.5027 16.875 30Z" fill="#377DFF" />
    </symbol>
    <symbol id="icon-cross" viewBox="0 0 32 32" xmlns="http://www.w3.org/2000/svg">
      <path d="M31.708 25.708c-0-0-0-0-0-0l-9.708-9.708 9.708-9.708c0-0 0-0 0-0 0.105-0.105 0.18-0.227 0.229-0.357 0.133-0.356 0.057-0.771-0.229-1.057l-4.586-4.586c-0.286-0.286-0.702-0.361-1.057-0.229-0.13 0.048-0.252 0.124-0.357 0.228 0 0-0 0-0 0l-9.708 9.708-9.708-9.708c-0-0-0-0-0-0-0.105-0.104-0.227-0.18-0.357-0.228-0.356-0.133-0.771-0.057-1.057 0.229l-4.586 4.586c-0.286 0.286-0.361 0.702-0.229 1.057 0.049 0.13 0.124 0.252 0.229 0.357 0 0 0 0 0 0l9.708 9.708-9.708 9.708c-0 0-0 0-0 0-0.104 0.105-0.18 0.227-0.229 0.357-0.133 0.355-0.057 0.771 0.229 1.057l4.586 4.586c0.286 0.286 0.702 0.361 1.057 0.229 0.13-0.049 0.252-0.124 0.357-0.229 0-0 0-0 0-0l9.708-9.708 9.708 9.708c0 0 0 0 0 0 0.105 0.105 0.227 0.18 0.357 0.229 0.356 0.133 0.771 0.057 1.057-0.229l4.586-4.586c0.286-0.286 0.362-0.702 0.229-1.057-0.049-0.13-0.124-0.252-0.229-0.357z"></path>
    </symbol>
    <symbol id="icon-user" viewBox="0 0 28 28" xmlns="http://www.w3.org/2000/svg">
      <path d="M14 0c7.734 0 14 6.266 14 14 0 7.688-6.234 14-14 14-7.75 0-14-6.297-14-14 0-7.734 6.266-14 14-14zM23.672 21.109c1.453-2 2.328-4.453 2.328-7.109 0-6.609-5.391-12-12-12s-12 5.391-12 12c0 2.656 0.875 5.109 2.328 7.109 0.562-2.797 1.922-5.109 4.781-5.109 1.266 1.234 2.984 2 4.891 2s3.625-0.766 4.891-2c2.859 0 4.219 2.312 4.781 5.109zM20 11c0-3.313-2.688-6-6-6s-6 2.688-6 6 2.688 6 6 6 6-2.688 6-6z"></path>
    </symbol>
    <symbol id="icon-email" viewBox="0 0 28 28" xmlns="http://www.w3.org/2000/svg">
      <path d="M28 11.094v12.406c0 1.375-1.125 2.5-2.5 2.5h-23c-1.375 0-2.5-1.125-2.5-2.5v-12.406c0.469 0.516 1 0.969 1.578 1.359 2.594 1.766 5.219 3.531 7.766 5.391 1.313 0.969 2.938 2.156 4.641 2.156h0.031c1.703 0 3.328-1.188 4.641-2.156 2.547-1.844 5.172-3.625 7.781-5.391 0.562-0.391 1.094-0.844 1.563-1.359zM28 6.5c0 1.75-1.297 3.328-2.672 4.281-2.438 1.687-4.891 3.375-7.313 5.078-1.016 0.703-2.734 2.141-4 2.141h-0.031c-1.266 0-2.984-1.437-4-2.141-2.422-1.703-4.875-3.391-7.297-5.078-1.109-0.75-2.688-2.516-2.688-3.938 0-1.531 0.828-2.844 2.5-2.844h23c1.359 0 2.5 1.125 2.5 2.5z"></path>
    </symbol>
    <symbol id="icon-phone" viewBox="0 0 24 28" xmlns="http://www.w3.org/2000/svg">
      <path d="M20 18.641c0-0.078 0-0.172-0.031-0.25-0.094-0.281-2.375-1.437-2.812-1.687-0.297-0.172-0.656-0.516-1.016-0.516-0.688 0-1.703 2.047-2.312 2.047-0.313 0-0.703-0.281-0.984-0.438-2.063-1.156-3.484-2.578-4.641-4.641-0.156-0.281-0.438-0.672-0.438-0.984 0-0.609 2.047-1.625 2.047-2.312 0-0.359-0.344-0.719-0.516-1.016-0.25-0.438-1.406-2.719-1.687-2.812-0.078-0.031-0.172-0.031-0.25-0.031-0.406 0-1.203 0.187-1.578 0.344-1.031 0.469-1.781 2.438-1.781 3.516 0 1.047 0.422 2 0.781 2.969 1.25 3.422 4.969 7.141 8.391 8.391 0.969 0.359 1.922 0.781 2.969 0.781 1.078 0 3.047-0.75 3.516-1.781 0.156-0.375 0.344-1.172 0.344-1.578zM24 6.5v15c0 2.484-2.016 4.5-4.5 4.5h-15c-2.484 0-4.5-2.016-4.5-4.5v-15c0-2.484 2.016-4.5 4.5-4.5h15c2.484 0 4.5 2.016 4.5 4.5z"></path>
    </symbol>
    <symbol id="icon-checkmark2" viewBox="0 0 28 28" xmlns="http://www.w3.org/2000/svg">
      <path d="M10.867 25.093l-10.879-10.708 5.397-5.312 5.482 5.396 11.747-11.562 5.397 5.312-17.144 16.874zM2.951 14.385l7.917 7.792 14.182-13.958-2.435-2.396-11.747 11.562-5.482-5.396-2.435 2.396z"></path>
    </symbol>
    <symbol id="icon-footer" viewBox="0 0 7 11" fill="none" xmlns="http://www.w3.org/2000/svg">
      <path d="M1.5 10.9999C1.36839 11.0007 1.23793 10.9755 1.11609 10.9257C0.994256 10.8759 0.88344 10.8026 0.79 10.7099C0.696272 10.617 0.621877 10.5064 0.571109 10.3845C0.52034 10.2626 0.494202 10.1319 0.494202 9.99993C0.494202 9.86792 0.52034 9.73721 0.571109 9.61535C0.621877 9.49349 0.696272 9.38289 0.79 9.28993L4.1 5.99993L0.92 2.68993C0.733749 2.50257 0.629208 2.24911 0.629208 1.98493C0.629208 1.72074 0.733749 1.46729 0.92 1.27993C1.01296 1.1862 1.12356 1.11181 1.24542 1.06104C1.36728 1.01027 1.49799 0.984131 1.63 0.984131C1.76201 0.984131 1.89272 1.01027 2.01458 1.06104C2.13644 1.11181 2.24704 1.1862 2.34 1.27993L6.2 5.27993C6.38323 5.46686 6.48586 5.71818 6.48586 5.97993C6.48586 6.24168 6.38323 6.493 6.2 6.67993L2.2 10.6799C2.11024 10.7769 2.00217 10.855 1.88202 10.91C1.76187 10.9649 1.63203 10.9955 1.5 10.9999Z" fill="#377DFF"/>
    </symbol>
    <symbol id="icon-adress" viewBox="0 0 20 20" fill="none" xmlns="http://www.w3.org/2000/svg">
      <path d="M10 2.00903C7.238 2.00903 5 4.23803 5 6.99903C5 11.773 10 17.999 10 17.999C10 17.999 15 11.772 15 6.99903C15 4.23903 12.762 2.00903 10 2.00903ZM10 9.76003C9.28392 9.76003 8.59716 9.47557 8.09081 8.96922C7.58446 8.46287 7.3 7.77612 7.3 7.06003C7.3 6.34395 7.58446 5.65719 8.09081 5.15084C8.59716 4.6445 9.28392 4.36003 10 4.36003C10.7161 4.36003 11.4028 4.6445 11.9092 5.15084C12.4155 5.65719 12.7 6.34395 12.7 7.06003C12.7 7.77612 12.4155 8.46287 11.9092 8.96922C11.4028 9.47557 10.7161 9.76003 10 9.76003Z" fill="#377DFF" />
    </symbol>
    <symbol id="icon-telephone" viewBox="0 0 20 20" fill="none" xmlns="http://www.w3.org/2000/svg">
      <path d="M6.987 2.0661C7.42458 1.93417 7.89415 1.95609 8.31754 2.12821C8.74093 2.30033 9.0926 2.61227 9.314 3.0121L9.389 3.1611L10.05 4.6321C10.2509 5.07858 10.3161 5.57428 10.2375 6.05754C10.159 6.54079 9.94003 6.99028 9.608 7.3501L9.476 7.4821L8.432 8.4551C8.244 8.6331 8.385 9.3221 9.066 10.5001C9.677 11.5601 10.176 12.0551 10.42 12.0821H10.463L10.516 12.0721L12.566 11.4451C12.8415 11.3606 13.1355 11.3573 13.4129 11.4355C13.6903 11.5137 13.9392 11.6701 14.13 11.8861L14.222 12.0011L15.578 13.8811C15.8441 14.2495 15.9768 14.6975 15.9542 15.1514C15.9317 15.6052 15.7553 16.0379 15.454 16.3781L15.332 16.5041L14.789 17.0181C14.3023 17.479 13.6935 17.7905 13.0349 17.9155C12.3763 18.0404 11.6957 17.9737 11.074 17.7231C9.139 16.9431 7.381 15.1611 5.784 12.3951C4.184 9.6221 3.519 7.2051 3.816 5.1351C3.90596 4.50925 4.16378 3.91946 4.56206 3.42839C4.96034 2.93732 5.4842 2.56331 6.078 2.3461L6.271 2.2821L6.987 2.0661Z" fill="#377DFF" />
    </symbol>
    <symbol id="icon-mail" viewBox="0 0 20 20" fill="none" xmlns="http://www.w3.org/2000/svg">
      <path d="M18 7.373V14.5C18 15.163 17.7366 15.7989 17.2678 16.2678C16.7989 16.7366 16.163 17 15.5 17H4.5C3.83696 17 3.20107 16.7366 2.73223 16.2678C2.26339 15.7989 2 15.163 2 14.5V7.373L9.746 11.931C9.82295 11.9764 9.91066 12.0003 10 12.0003C10.0893 12.0003 10.177 11.9764 10.254 11.931L18 7.373ZM15.5 4C16.1151 3.9999 16.7087 4.22661 17.1672 4.63674C17.6257 5.04687 17.9168 5.61164 17.985 6.223L10 10.92L2.015 6.223C2.08316 5.61164 2.37432 5.04687 2.83279 4.63674C3.29127 4.22661 3.88485 3.9999 4.5 4H15.5Z" fill="#377DFF" />
    </symbol>
    <symbol id="icon-th-menu" viewBox="0 0 24 24" xmlns="http://www.w3.org/2000/svg">
      <path d="M19 17h-14c-1.103 0-2 0.897-2 2s0.897 2 2 2h14c1.103 0 2-0.897 2-2s-0.897-2-2-2z"></path>
      <path d="M19 10h-14c-1.103 0-2 0.897-2 2s0.897 2 2 2h14c1.103 0 2-0.897 2-2s-0.897-2-2-2z"></path>
      <path d="M19 3h-14c-1.103 0-2 0.897-2 2s0.897 2 2 2h14c1.103 0 2-0.897 2-2s-0.897-2-2-2z"></path>
    </symbol>
  </defs>
</svg>